<svg width="34" height="34" viewBox="0 0 34 34" fill="none" xmlns="http://www.w3.org/2000/svg">
<path d="M18 10C18 9.44772 17.5523 9 17 9C16.4477 9 16 9.44772 16 10L18 10ZM16.2929 24.7071C16.6834 25.0976 17.3166 25.0976 17.7071 24.7071L24.0711 18.3431C24.4616 17.9526 24.4616 17.3195 24.0711 16.9289C23.6805 16.5384 23.0474 16.5384 22.6569 16.9289L17 22.5858L11.3431 16.9289C10.9526 16.5384 10.3195 16.5384 9.92893 16.9289C9.53841 17.3195 9.53841 17.9526 9.92893 18.3431L16.2929 24.7071ZM16 10L16 24L18 24L18 10L16 10Z" fill="#FFFBDF"/>
<rect x="1" y="1" width="32" height="32" rx="16" stroke="#FFFBDF" stroke-width="2"/>
</svg>
